<?xml version="1.0" encoding="UTF-8" standalone="no"?>
<svg
   xmlns:dc="http://purl.org/dc/elements/1.1/"
   xmlns:cc="http://creativecommons.org/ns#"
   xmlns:rdf="http://www.w3.org/1999/02/22-rdf-syntax-ns#"
   xmlns:svg="http://www.w3.org/2000/svg"
   xmlns="http://www.w3.org/2000/svg"
   id="svg12"
   width="20px"
   viewBox="0 0 20 20"
   version="1.1"
   height="20px">
  <metadata
     id="metadata16">
    <rdf:RDF>
      <cc:Work
         rdf:about="">
        <dc:format>image/svg+xml</dc:format>
        <dc:type
           rdf:resource="http://purl.org/dc/dcmitype/StillImage" />
        <dc:title></dc:title>
      </cc:Work>
    </rdf:RDF>
  </metadata>
  <desc
     id="desc4" />
  <defs
     id="defs6" />
  <g
     style="fill:#000000"
     stroke-width="1"
     stroke="none"
     id="Page-1"
     fill-rule="evenodd"
     fill="none">
    <g
       style="fill:#000000"
       transform="translate(-44.000000, 0.000000)"
       id="Icons-Device"
       fill-opacity="0.9"
       fill="#000000">
      <g
         style="fill:#000000"
         transform="translate(44.000000, 0.000000)"
         id="access-time">
        <path
           style="fill:#000000"
           id="Shape"
           d="M10,0 C4.5,0 0,4.5 0,10 C0,15.5 4.5,20 10,20 C15.5,20 20,15.5 20,10 C20,4.5 15.5,0 10,0 L10,0 Z M10,18 C5.6,18 2,14.4 2,10 C2,5.6 5.6,2 10,2 C14.4,2 18,5.6 18,10 C18,14.4 14.4,18 10,18 Z M10.5,5 L9,5 L9,11 L14.2,14.2 L15,12.9 L10.5,10.2 L10.5,5 Z" />
      </g>
    </g>
  </g>
</svg>
