<?xml version="1.0" encoding="UTF-8" standalone="no"?>
<svg
   xmlns:dc="http://purl.org/dc/elements/1.1/"
   xmlns:cc="http://creativecommons.org/ns#"
   xmlns:rdf="http://www.w3.org/1999/02/22-rdf-syntax-ns#"
   xmlns:svg="http://www.w3.org/2000/svg"
   xmlns="http://www.w3.org/2000/svg"
   xml:space="preserve"
   width="32"
   viewBox="0 0 32 32"
   version="1.1"
   id="svg2"
   height="32"
   enable-background="new 0 0 32 32"><metadata
     id="metadata15"><rdf:RDF><cc:Work
         rdf:about=""><dc:format>image/svg+xml</dc:format><dc:type
           rdf:resource="http://purl.org/dc/dcmitype/StillImage" /><dc:title></dc:title></cc:Work></rdf:RDF></metadata><defs
     id="defs13" /><g
     id="background"><rect
       style="fill:none"
       y="0"
       x="0"
       id="rect2"
       width="32"
       height="32" /></g><g
     id="server_x5F_settings"><path
       id="path5"
       d="M 30,17.349 V 12 h -2 v -2 h 2 V 2 H 2 v 8 h 2 v 2 H 2 v 8 h 2 v 2 H 2 v 8 h 15.349 c 1.545,1.248 3.51,1.999 5.651,2 4.971,-0.002 8.998,-4.029 9,-9 -0.001,-2.142 -0.752,-4.106 -2,-5.651 z M 14.059,22 H 6 v -2 h 8.522 c -0.225,0.638 -0.387,1.306 -0.463,2 z M 26,12 H 6 V 10 H 26 Z M 4,6 H 8 V 8 H 4 Z m 0,10 h 4 v 2 H 4 Z M 8,28 H 4 v -2 h 4 z m 15,1.883 C 19.199,29.874 16.124,26.799 16.115,23 16.124,19.199 19.199,16.124 23,16.115 26.799,16.124 29.874,19.199 29.883,23 29.874,26.799 26.799,29.874 23,29.883 Z" /><path
       id="path7"
       d="m 28,24 v -2.001 h -1.663 c -0.063,-0.212 -0.145,-0.413 -0.245,-0.606 l 1.187,-1.187 -1.416,-1.415 -1.165,1.166 c -0.22,-0.123 -0.452,-0.221 -0.697,-0.294 V 18 h -2 v 1.662 c -0.229,0.068 -0.446,0.158 -0.652,0.27 l -1.141,-1.14 -1.415,1.415 1.14,1.14 C 19.821,21.554 19.731,21.771 19.662,22 H 18 v 2 h 1.662 c 0.073,0.246 0.172,0.479 0.295,0.698 l -1.165,1.163 1.413,1.416 1.188,-1.187 c 0.192,0.101 0.394,0.182 0.605,0.245 V 28 H 24 v -1.665 c 0.229,-0.068 0.445,-0.158 0.651,-0.27 l 1.212,1.212 1.414,-1.416 -1.212,-1.21 c 0.111,-0.206 0.201,-0.423 0.27,-0.651 z m -5.001,0.499 c -0.829,-0.002 -1.498,-0.671 -1.501,-1.5 0.003,-0.829 0.672,-1.498 1.501,-1.501 0.829,0.003 1.498,0.672 1.5,1.501 -0.002,0.829 -0.671,1.498 -1.5,1.5 z" /></g></svg>