<?xml version="1.0" encoding="UTF-8"?>
<svg version="1.1" baseProfile="tiny" xmlns="http://www.w3.org/2000/svg" width="290" height="290">
<rect shape-rendering="optimizeSpeed"  x="0" y="0" width="290" height="290" fill="white" />
<rect shape-rendering="optimizeSpeed"  x="0" y="0" width="10" height="10" fill="black" />
<rect shape-rendering="optimizeSpeed"  x="10" y="0" width="10" height="10" fill="black" />
<rect shape-rendering="optimizeSpeed"  x="20" y="0" width="10" height="10" fill="black" />
<rect shape-rendering="optimizeSpeed"  x="30" y="0" width="10" height="10" fill="black" />
<rect shape-rendering="optimizeSpeed"  x="40" y="0" width="10" height="10" fill="black" />
<rect shape-rendering="optimizeSpeed"  x="50" y="0" width="10" height="10" fill="black" />
<rect shape-rendering="optimizeSpeed"  x="60" y="0" width="10" height="10" fill="black" />
<rect shape-rendering="optimizeSpeed"  x="100" y="0" width="10" height="10" fill="black" />
<rect shape-rendering="optimizeSpeed"  x="120" y="0" width="10" height="10" fill="black" />
<rect shape-rendering="optimizeSpeed"  x="130" y="0" width="10" height="10" fill="black" />
<rect shape-rendering="optimizeSpeed"  x="140" y="0" width="10" height="10" fill="black" />
<rect shape-rendering="optimizeSpeed"  x="150" y="0" width="10" height="10" fill="black" />
<rect shape-rendering="optimizeSpeed"  x="200" y="0" width="10" height="10" fill="black" />
<rect shape-rendering="optimizeSpeed"  x="220" y="0" width="10" height="10" fill="black" />
<rect shape-rendering="optimizeSpeed"  x="230" y="0" width="10" height="10" fill="black" />
<rect shape-rendering="optimizeSpeed"  x="240" y="0" width="10" height="10" fill="black" />
<rect shape-rendering="optimizeSpeed"  x="250" y="0" width="10" height="10" fill="black" />
<rect shape-rendering="optimizeSpeed"  x="260" y="0" width="10" height="10" fill="black" />
<rect shape-rendering="optimizeSpeed"  x="270" y="0" width="10" height="10" fill="black" />
<rect shape-rendering="optimizeSpeed"  x="280" y="0" width="10" height="10" fill="black" />
<rect shape-rendering="optimizeSpeed"  x="0" y="10" width="10" height="10" fill="black" />
<rect shape-rendering="optimizeSpeed"  x="60" y="10" width="10" height="10" fill="black" />
<rect shape-rendering="optimizeSpeed"  x="80" y="10" width="10" height="10" fill="black" />
<rect shape-rendering="optimizeSpeed"  x="100" y="10" width="10" height="10" fill="black" />
<rect shape-rendering="optimizeSpeed"  x="130" y="10" width="10" height="10" fill="black" />
<rect shape-rendering="optimizeSpeed"  x="140" y="10" width="10" height="10" fill="black" />
<rect shape-rendering="optimizeSpeed"  x="150" y="10" width="10" height="10" fill="black" />
<rect shape-rendering="optimizeSpeed"  x="160" y="10" width="10" height="10" fill="black" />
<rect shape-rendering="optimizeSpeed"  x="180" y="10" width="10" height="10" fill="black" />
<rect shape-rendering="optimizeSpeed"  x="220" y="10" width="10" height="10" fill="black" />
<rect shape-rendering="optimizeSpeed"  x="280" y="10" width="10" height="10" fill="black" />
<rect shape-rendering="optimizeSpeed"  x="0" y="20" width="10" height="10" fill="black" />
<rect shape-rendering="optimizeSpeed"  x="20" y="20" width="10" height="10" fill="black" />
<rect shape-rendering="optimizeSpeed"  x="30" y="20" width="10" height="10" fill="black" />
<rect shape-rendering="optimizeSpeed"  x="40" y="20" width="10" height="10" fill="black" />
<rect shape-rendering="optimizeSpeed"  x="60" y="20" width="10" height="10" fill="black" />
<rect shape-rendering="optimizeSpeed"  x="120" y="20" width="10" height="10" fill="black" />
<rect shape-rendering="optimizeSpeed"  x="130" y="20" width="10" height="10" fill="black" />
<rect shape-rendering="optimizeSpeed"  x="150" y="20" width="10" height="10" fill="black" />
<rect shape-rendering="optimizeSpeed"  x="200" y="20" width="10" height="10" fill="black" />
<rect shape-rendering="optimizeSpeed"  x="220" y="20" width="10" height="10" fill="black" />
<rect shape-rendering="optimizeSpeed"  x="240" y="20" width="10" height="10" fill="black" />
<rect shape-rendering="optimizeSpeed"  x="250" y="20" width="10" height="10" fill="black" />
<rect shape-rendering="optimizeSpeed"  x="260" y="20" width="10" height="10" fill="black" />
<rect shape-rendering="optimizeSpeed"  x="280" y="20" width="10" height="10" fill="black" />
<rect shape-rendering="optimizeSpeed"  x="0" y="30" width="10" height="10" fill="black" />
<rect shape-rendering="optimizeSpeed"  x="20" y="30" width="10" height="10" fill="black" />
<rect shape-rendering="optimizeSpeed"  x="30" y="30" width="10" height="10" fill="black" />
<rect shape-rendering="optimizeSpeed"  x="40" y="30" width="10" height="10" fill="black" />
<rect shape-rendering="optimizeSpeed"  x="60" y="30" width="10" height="10" fill="black" />
<rect shape-rendering="optimizeSpeed"  x="80" y="30" width="10" height="10" fill="black" />
<rect shape-rendering="optimizeSpeed"  x="90" y="30" width="10" height="10" fill="black" />
<rect shape-rendering="optimizeSpeed"  x="100" y="30" width="10" height="10" fill="black" />
<rect shape-rendering="optimizeSpeed"  x="120" y="30" width="10" height="10" fill="black" />
<rect shape-rendering="optimizeSpeed"  x="140" y="30" width="10" height="10" fill="black" />
<rect shape-rendering="optimizeSpeed"  x="150" y="30" width="10" height="10" fill="black" />
<rect shape-rendering="optimizeSpeed"  x="170" y="30" width="10" height="10" fill="black" />
<rect shape-rendering="optimizeSpeed"  x="200" y="30" width="10" height="10" fill="black" />
<rect shape-rendering="optimizeSpeed"  x="220" y="30" width="10" height="10" fill="black" />
<rect shape-rendering="optimizeSpeed"  x="240" y="30" width="10" height="10" fill="black" />
<rect shape-rendering="optimizeSpeed"  x="250" y="30" width="10" height="10" fill="black" />
<rect shape-rendering="optimizeSpeed"  x="260" y="30" width="10" height="10" fill="black" />
<rect shape-rendering="optimizeSpeed"  x="280" y="30" width="10" height="10" fill="black" />
<rect shape-rendering="optimizeSpeed"  x="0" y="40" width="10" height="10" fill="black" />
<rect shape-rendering="optimizeSpeed"  x="20" y="40" width="10" height="10" fill="black" />
<rect shape-rendering="optimizeSpeed"  x="30" y="40" width="10" height="10" fill="black" />
<rect shape-rendering="optimizeSpeed"  x="40" y="40" width="10" height="10" fill="black" />
<rect shape-rendering="optimizeSpeed"  x="60" y="40" width="10" height="10" fill="black" />
<rect shape-rendering="optimizeSpeed"  x="90" y="40" width="10" height="10" fill="black" />
<rect shape-rendering="optimizeSpeed"  x="150" y="40" width="10" height="10" fill="black" />
<rect shape-rendering="optimizeSpeed"  x="160" y="40" width="10" height="10" fill="black" />
<rect shape-rendering="optimizeSpeed"  x="170" y="40" width="10" height="10" fill="black" />
<rect shape-rendering="optimizeSpeed"  x="180" y="40" width="10" height="10" fill="black" />
<rect shape-rendering="optimizeSpeed"  x="190" y="40" width="10" height="10" fill="black" />
<rect shape-rendering="optimizeSpeed"  x="220" y="40" width="10" height="10" fill="black" />
<rect shape-rendering="optimizeSpeed"  x="240" y="40" width="10" height="10" fill="black" />
<rect shape-rendering="optimizeSpeed"  x="250" y="40" width="10" height="10" fill="black" />
<rect shape-rendering="optimizeSpeed"  x="260" y="40" width="10" height="10" fill="black" />
<rect shape-rendering="optimizeSpeed"  x="280" y="40" width="10" height="10" fill="black" />
<rect shape-rendering="optimizeSpeed"  x="0" y="50" width="10" height="10" fill="black" />
<rect shape-rendering="optimizeSpeed"  x="60" y="50" width="10" height="10" fill="black" />
<rect shape-rendering="optimizeSpeed"  x="80" y="50" width="10" height="10" fill="black" />
<rect shape-rendering="optimizeSpeed"  x="90" y="50" width="10" height="10" fill="black" />
<rect shape-rendering="optimizeSpeed"  x="110" y="50" width="10" height="10" fill="black" />
<rect shape-rendering="optimizeSpeed"  x="120" y="50" width="10" height="10" fill="black" />
<rect shape-rendering="optimizeSpeed"  x="170" y="50" width="10" height="10" fill="black" />
<rect shape-rendering="optimizeSpeed"  x="180" y="50" width="10" height="10" fill="black" />
<rect shape-rendering="optimizeSpeed"  x="220" y="50" width="10" height="10" fill="black" />
<rect shape-rendering="optimizeSpeed"  x="280" y="50" width="10" height="10" fill="black" />
<rect shape-rendering="optimizeSpeed"  x="0" y="60" width="10" height="10" fill="black" />
<rect shape-rendering="optimizeSpeed"  x="10" y="60" width="10" height="10" fill="black" />
<rect shape-rendering="optimizeSpeed"  x="20" y="60" width="10" height="10" fill="black" />
<rect shape-rendering="optimizeSpeed"  x="30" y="60" width="10" height="10" fill="black" />
<rect shape-rendering="optimizeSpeed"  x="40" y="60" width="10" height="10" fill="black" />
<rect shape-rendering="optimizeSpeed"  x="50" y="60" width="10" height="10" fill="black" />
<rect shape-rendering="optimizeSpeed"  x="60" y="60" width="10" height="10" fill="black" />
<rect shape-rendering="optimizeSpeed"  x="80" y="60" width="10" height="10" fill="black" />
<rect shape-rendering="optimizeSpeed"  x="100" y="60" width="10" height="10" fill="black" />
<rect shape-rendering="optimizeSpeed"  x="120" y="60" width="10" height="10" fill="black" />
<rect shape-rendering="optimizeSpeed"  x="140" y="60" width="10" height="10" fill="black" />
<rect shape-rendering="optimizeSpeed"  x="160" y="60" width="10" height="10" fill="black" />
<rect shape-rendering="optimizeSpeed"  x="180" y="60" width="10" height="10" fill="black" />
<rect shape-rendering="optimizeSpeed"  x="200" y="60" width="10" height="10" fill="black" />
<rect shape-rendering="optimizeSpeed"  x="220" y="60" width="10" height="10" fill="black" />
<rect shape-rendering="optimizeSpeed"  x="230" y="60" width="10" height="10" fill="black" />
<rect shape-rendering="optimizeSpeed"  x="240" y="60" width="10" height="10" fill="black" />
<rect shape-rendering="optimizeSpeed"  x="250" y="60" width="10" height="10" fill="black" />
<rect shape-rendering="optimizeSpeed"  x="260" y="60" width="10" height="10" fill="black" />
<rect shape-rendering="optimizeSpeed"  x="270" y="60" width="10" height="10" fill="black" />
<rect shape-rendering="optimizeSpeed"  x="280" y="60" width="10" height="10" fill="black" />
<rect shape-rendering="optimizeSpeed"  x="90" y="70" width="10" height="10" fill="black" />
<rect shape-rendering="optimizeSpeed"  x="100" y="70" width="10" height="10" fill="black" />
<rect shape-rendering="optimizeSpeed"  x="110" y="70" width="10" height="10" fill="black" />
<rect shape-rendering="optimizeSpeed"  x="140" y="70" width="10" height="10" fill="black" />
<rect shape-rendering="optimizeSpeed"  x="160" y="70" width="10" height="10" fill="black" />
<rect shape-rendering="optimizeSpeed"  x="180" y="70" width="10" height="10" fill="black" />
<rect shape-rendering="optimizeSpeed"  x="0" y="80" width="10" height="10" fill="black" />
<rect shape-rendering="optimizeSpeed"  x="10" y="80" width="10" height="10" fill="black" />
<rect shape-rendering="optimizeSpeed"  x="20" y="80" width="10" height="10" fill="black" />
<rect shape-rendering="optimizeSpeed"  x="30" y="80" width="10" height="10" fill="black" />
<rect shape-rendering="optimizeSpeed"  x="40" y="80" width="10" height="10" fill="black" />
<rect shape-rendering="optimizeSpeed"  x="60" y="80" width="10" height="10" fill="black" />
<rect shape-rendering="optimizeSpeed"  x="70" y="80" width="10" height="10" fill="black" />
<rect shape-rendering="optimizeSpeed"  x="80" y="80" width="10" height="10" fill="black" />
<rect shape-rendering="optimizeSpeed"  x="90" y="80" width="10" height="10" fill="black" />
<rect shape-rendering="optimizeSpeed"  x="110" y="80" width="10" height="10" fill="black" />
<rect shape-rendering="optimizeSpeed"  x="170" y="80" width="10" height="10" fill="black" />
<rect shape-rendering="optimizeSpeed"  x="200" y="80" width="10" height="10" fill="black" />
<rect shape-rendering="optimizeSpeed"  x="210" y="80" width="10" height="10" fill="black" />
<rect shape-rendering="optimizeSpeed"  x="230" y="80" width="10" height="10" fill="black" />
<rect shape-rendering="optimizeSpeed"  x="250" y="80" width="10" height="10" fill="black" />
<rect shape-rendering="optimizeSpeed"  x="270" y="80" width="10" height="10" fill="black" />
<rect shape-rendering="optimizeSpeed"  x="10" y="90" width="10" height="10" fill="black" />
<rect shape-rendering="optimizeSpeed"  x="50" y="90" width="10" height="10" fill="black" />
<rect shape-rendering="optimizeSpeed"  x="70" y="90" width="10" height="10" fill="black" />
<rect shape-rendering="optimizeSpeed"  x="80" y="90" width="10" height="10" fill="black" />
<rect shape-rendering="optimizeSpeed"  x="100" y="90" width="10" height="10" fill="black" />
<rect shape-rendering="optimizeSpeed"  x="120" y="90" width="10" height="10" fill="black" />
<rect shape-rendering="optimizeSpeed"  x="130" y="90" width="10" height="10" fill="black" />
<rect shape-rendering="optimizeSpeed"  x="140" y="90" width="10" height="10" fill="black" />
<rect shape-rendering="optimizeSpeed"  x="150" y="90" width="10" height="10" fill="black" />
<rect shape-rendering="optimizeSpeed"  x="190" y="90" width="10" height="10" fill="black" />
<rect shape-rendering="optimizeSpeed"  x="200" y="90" width="10" height="10" fill="black" />
<rect shape-rendering="optimizeSpeed"  x="230" y="90" width="10" height="10" fill="black" />
<rect shape-rendering="optimizeSpeed"  x="240" y="90" width="10" height="10" fill="black" />
<rect shape-rendering="optimizeSpeed"  x="250" y="90" width="10" height="10" fill="black" />
<rect shape-rendering="optimizeSpeed"  x="270" y="90" width="10" height="10" fill="black" />
<rect shape-rendering="optimizeSpeed"  x="280" y="90" width="10" height="10" fill="black" />
<rect shape-rendering="optimizeSpeed"  x="0" y="100" width="10" height="10" fill="black" />
<rect shape-rendering="optimizeSpeed"  x="10" y="100" width="10" height="10" fill="black" />
<rect shape-rendering="optimizeSpeed"  x="20" y="100" width="10" height="10" fill="black" />
<rect shape-rendering="optimizeSpeed"  x="30" y="100" width="10" height="10" fill="black" />
<rect shape-rendering="optimizeSpeed"  x="40" y="100" width="10" height="10" fill="black" />
<rect shape-rendering="optimizeSpeed"  x="60" y="100" width="10" height="10" fill="black" />
<rect shape-rendering="optimizeSpeed"  x="100" y="100" width="10" height="10" fill="black" />
<rect shape-rendering="optimizeSpeed"  x="130" y="100" width="10" height="10" fill="black" />
<rect shape-rendering="optimizeSpeed"  x="140" y="100" width="10" height="10" fill="black" />
<rect shape-rendering="optimizeSpeed"  x="150" y="100" width="10" height="10" fill="black" />
<rect shape-rendering="optimizeSpeed"  x="170" y="100" width="10" height="10" fill="black" />
<rect shape-rendering="optimizeSpeed"  x="180" y="100" width="10" height="10" fill="black" />
<rect shape-rendering="optimizeSpeed"  x="200" y="100" width="10" height="10" fill="black" />
<rect shape-rendering="optimizeSpeed"  x="210" y="100" width="10" height="10" fill="black" />
<rect shape-rendering="optimizeSpeed"  x="230" y="100" width="10" height="10" fill="black" />
<rect shape-rendering="optimizeSpeed"  x="10" y="110" width="10" height="10" fill="black" />
<rect shape-rendering="optimizeSpeed"  x="30" y="110" width="10" height="10" fill="black" />
<rect shape-rendering="optimizeSpeed"  x="40" y="110" width="10" height="10" fill="black" />
<rect shape-rendering="optimizeSpeed"  x="50" y="110" width="10" height="10" fill="black" />
<rect shape-rendering="optimizeSpeed"  x="70" y="110" width="10" height="10" fill="black" />
<rect shape-rendering="optimizeSpeed"  x="80" y="110" width="10" height="10" fill="black" />
<rect shape-rendering="optimizeSpeed"  x="120" y="110" width="10" height="10" fill="black" />
<rect shape-rendering="optimizeSpeed"  x="130" y="110" width="10" height="10" fill="black" />
<rect shape-rendering="optimizeSpeed"  x="150" y="110" width="10" height="10" fill="black" />
<rect shape-rendering="optimizeSpeed"  x="160" y="110" width="10" height="10" fill="black" />
<rect shape-rendering="optimizeSpeed"  x="190" y="110" width="10" height="10" fill="black" />
<rect shape-rendering="optimizeSpeed"  x="220" y="110" width="10" height="10" fill="black" />
<rect shape-rendering="optimizeSpeed"  x="230" y="110" width="10" height="10" fill="black" />
<rect shape-rendering="optimizeSpeed"  x="240" y="110" width="10" height="10" fill="black" />
<rect shape-rendering="optimizeSpeed"  x="250" y="110" width="10" height="10" fill="black" />
<rect shape-rendering="optimizeSpeed"  x="270" y="110" width="10" height="10" fill="black" />
<rect shape-rendering="optimizeSpeed"  x="20" y="120" width="10" height="10" fill="black" />
<rect shape-rendering="optimizeSpeed"  x="30" y="120" width="10" height="10" fill="black" />
<rect shape-rendering="optimizeSpeed"  x="40" y="120" width="10" height="10" fill="black" />
<rect shape-rendering="optimizeSpeed"  x="60" y="120" width="10" height="10" fill="black" />
<rect shape-rendering="optimizeSpeed"  x="70" y="120" width="10" height="10" fill="black" />
<rect shape-rendering="optimizeSpeed"  x="90" y="120" width="10" height="10" fill="black" />
<rect shape-rendering="optimizeSpeed"  x="100" y="120" width="10" height="10" fill="black" />
<rect shape-rendering="optimizeSpeed"  x="120" y="120" width="10" height="10" fill="black" />
<rect shape-rendering="optimizeSpeed"  x="140" y="120" width="10" height="10" fill="black" />
<rect shape-rendering="optimizeSpeed"  x="200" y="120" width="10" height="10" fill="black" />
<rect shape-rendering="optimizeSpeed"  x="210" y="120" width="10" height="10" fill="black" />
<rect shape-rendering="optimizeSpeed"  x="240" y="120" width="10" height="10" fill="black" />
<rect shape-rendering="optimizeSpeed"  x="250" y="120" width="10" height="10" fill="black" />
<rect shape-rendering="optimizeSpeed"  x="280" y="120" width="10" height="10" fill="black" />
<rect shape-rendering="optimizeSpeed"  x="0" y="130" width="10" height="10" fill="black" />
<rect shape-rendering="optimizeSpeed"  x="30" y="130" width="10" height="10" fill="black" />
<rect shape-rendering="optimizeSpeed"  x="70" y="130" width="10" height="10" fill="black" />
<rect shape-rendering="optimizeSpeed"  x="80" y="130" width="10" height="10" fill="black" />
<rect shape-rendering="optimizeSpeed"  x="150" y="130" width="10" height="10" fill="black" />
<rect shape-rendering="optimizeSpeed"  x="160" y="130" width="10" height="10" fill="black" />
<rect shape-rendering="optimizeSpeed"  x="170" y="130" width="10" height="10" fill="black" />
<rect shape-rendering="optimizeSpeed"  x="200" y="130" width="10" height="10" fill="black" />
<rect shape-rendering="optimizeSpeed"  x="220" y="130" width="10" height="10" fill="black" />
<rect shape-rendering="optimizeSpeed"  x="230" y="130" width="10" height="10" fill="black" />
<rect shape-rendering="optimizeSpeed"  x="240" y="130" width="10" height="10" fill="black" />
<rect shape-rendering="optimizeSpeed"  x="250" y="130" width="10" height="10" fill="black" />
<rect shape-rendering="optimizeSpeed"  x="270" y="130" width="10" height="10" fill="black" />
<rect shape-rendering="optimizeSpeed"  x="0" y="140" width="10" height="10" fill="black" />
<rect shape-rendering="optimizeSpeed"  x="30" y="140" width="10" height="10" fill="black" />
<rect shape-rendering="optimizeSpeed"  x="40" y="140" width="10" height="10" fill="black" />
<rect shape-rendering="optimizeSpeed"  x="50" y="140" width="10" height="10" fill="black" />
<rect shape-rendering="optimizeSpeed"  x="60" y="140" width="10" height="10" fill="black" />
<rect shape-rendering="optimizeSpeed"  x="100" y="140" width="10" height="10" fill="black" />
<rect shape-rendering="optimizeSpeed"  x="110" y="140" width="10" height="10" fill="black" />
<rect shape-rendering="optimizeSpeed"  x="120" y="140" width="10" height="10" fill="black" />
<rect shape-rendering="optimizeSpeed"  x="150" y="140" width="10" height="10" fill="black" />
<rect shape-rendering="optimizeSpeed"  x="160" y="140" width="10" height="10" fill="black" />
<rect shape-rendering="optimizeSpeed"  x="170" y="140" width="10" height="10" fill="black" />
<rect shape-rendering="optimizeSpeed"  x="180" y="140" width="10" height="10" fill="black" />
<rect shape-rendering="optimizeSpeed"  x="210" y="140" width="10" height="10" fill="black" />
<rect shape-rendering="optimizeSpeed"  x="220" y="140" width="10" height="10" fill="black" />
<rect shape-rendering="optimizeSpeed"  x="30" y="150" width="10" height="10" fill="black" />
<rect shape-rendering="optimizeSpeed"  x="40" y="150" width="10" height="10" fill="black" />
<rect shape-rendering="optimizeSpeed"  x="50" y="150" width="10" height="10" fill="black" />
<rect shape-rendering="optimizeSpeed"  x="80" y="150" width="10" height="10" fill="black" />
<rect shape-rendering="optimizeSpeed"  x="100" y="150" width="10" height="10" fill="black" />
<rect shape-rendering="optimizeSpeed"  x="110" y="150" width="10" height="10" fill="black" />
<rect shape-rendering="optimizeSpeed"  x="140" y="150" width="10" height="10" fill="black" />
<rect shape-rendering="optimizeSpeed"  x="180" y="150" width="10" height="10" fill="black" />
<rect shape-rendering="optimizeSpeed"  x="190" y="150" width="10" height="10" fill="black" />
<rect shape-rendering="optimizeSpeed"  x="250" y="150" width="10" height="10" fill="black" />
<rect shape-rendering="optimizeSpeed"  x="270" y="150" width="10" height="10" fill="black" />
<rect shape-rendering="optimizeSpeed"  x="0" y="160" width="10" height="10" fill="black" />
<rect shape-rendering="optimizeSpeed"  x="10" y="160" width="10" height="10" fill="black" />
<rect shape-rendering="optimizeSpeed"  x="20" y="160" width="10" height="10" fill="black" />
<rect shape-rendering="optimizeSpeed"  x="30" y="160" width="10" height="10" fill="black" />
<rect shape-rendering="optimizeSpeed"  x="40" y="160" width="10" height="10" fill="black" />
<rect shape-rendering="optimizeSpeed"  x="50" y="160" width="10" height="10" fill="black" />
<rect shape-rendering="optimizeSpeed"  x="60" y="160" width="10" height="10" fill="black" />
<rect shape-rendering="optimizeSpeed"  x="80" y="160" width="10" height="10" fill="black" />
<rect shape-rendering="optimizeSpeed"  x="90" y="160" width="10" height="10" fill="black" />
<rect shape-rendering="optimizeSpeed"  x="110" y="160" width="10" height="10" fill="black" />
<rect shape-rendering="optimizeSpeed"  x="150" y="160" width="10" height="10" fill="black" />
<rect shape-rendering="optimizeSpeed"  x="160" y="160" width="10" height="10" fill="black" />
<rect shape-rendering="optimizeSpeed"  x="170" y="160" width="10" height="10" fill="black" />
<rect shape-rendering="optimizeSpeed"  x="230" y="160" width="10" height="10" fill="black" />
<rect shape-rendering="optimizeSpeed"  x="250" y="160" width="10" height="10" fill="black" />
<rect shape-rendering="optimizeSpeed"  x="260" y="160" width="10" height="10" fill="black" />
<rect shape-rendering="optimizeSpeed"  x="270" y="160" width="10" height="10" fill="black" />
<rect shape-rendering="optimizeSpeed"  x="280" y="160" width="10" height="10" fill="black" />
<rect shape-rendering="optimizeSpeed"  x="0" y="170" width="10" height="10" fill="black" />
<rect shape-rendering="optimizeSpeed"  x="30" y="170" width="10" height="10" fill="black" />
<rect shape-rendering="optimizeSpeed"  x="40" y="170" width="10" height="10" fill="black" />
<rect shape-rendering="optimizeSpeed"  x="50" y="170" width="10" height="10" fill="black" />
<rect shape-rendering="optimizeSpeed"  x="80" y="170" width="10" height="10" fill="black" />
<rect shape-rendering="optimizeSpeed"  x="90" y="170" width="10" height="10" fill="black" />
<rect shape-rendering="optimizeSpeed"  x="120" y="170" width="10" height="10" fill="black" />
<rect shape-rendering="optimizeSpeed"  x="130" y="170" width="10" height="10" fill="black" />
<rect shape-rendering="optimizeSpeed"  x="140" y="170" width="10" height="10" fill="black" />
<rect shape-rendering="optimizeSpeed"  x="150" y="170" width="10" height="10" fill="black" />
<rect shape-rendering="optimizeSpeed"  x="160" y="170" width="10" height="10" fill="black" />
<rect shape-rendering="optimizeSpeed"  x="180" y="170" width="10" height="10" fill="black" />
<rect shape-rendering="optimizeSpeed"  x="200" y="170" width="10" height="10" fill="black" />
<rect shape-rendering="optimizeSpeed"  x="210" y="170" width="10" height="10" fill="black" />
<rect shape-rendering="optimizeSpeed"  x="220" y="170" width="10" height="10" fill="black" />
<rect shape-rendering="optimizeSpeed"  x="230" y="170" width="10" height="10" fill="black" />
<rect shape-rendering="optimizeSpeed"  x="240" y="170" width="10" height="10" fill="black" />
<rect shape-rendering="optimizeSpeed"  x="280" y="170" width="10" height="10" fill="black" />
<rect shape-rendering="optimizeSpeed"  x="0" y="180" width="10" height="10" fill="black" />
<rect shape-rendering="optimizeSpeed"  x="20" y="180" width="10" height="10" fill="black" />
<rect shape-rendering="optimizeSpeed"  x="60" y="180" width="10" height="10" fill="black" />
<rect shape-rendering="optimizeSpeed"  x="80" y="180" width="10" height="10" fill="black" />
<rect shape-rendering="optimizeSpeed"  x="90" y="180" width="10" height="10" fill="black" />
<rect shape-rendering="optimizeSpeed"  x="100" y="180" width="10" height="10" fill="black" />
<rect shape-rendering="optimizeSpeed"  x="130" y="180" width="10" height="10" fill="black" />
<rect shape-rendering="optimizeSpeed"  x="140" y="180" width="10" height="10" fill="black" />
<rect shape-rendering="optimizeSpeed"  x="150" y="180" width="10" height="10" fill="black" />
<rect shape-rendering="optimizeSpeed"  x="160" y="180" width="10" height="10" fill="black" />
<rect shape-rendering="optimizeSpeed"  x="200" y="180" width="10" height="10" fill="black" />
<rect shape-rendering="optimizeSpeed"  x="220" y="180" width="10" height="10" fill="black" />
<rect shape-rendering="optimizeSpeed"  x="240" y="180" width="10" height="10" fill="black" />
<rect shape-rendering="optimizeSpeed"  x="250" y="180" width="10" height="10" fill="black" />
<rect shape-rendering="optimizeSpeed"  x="0" y="190" width="10" height="10" fill="black" />
<rect shape-rendering="optimizeSpeed"  x="30" y="190" width="10" height="10" fill="black" />
<rect shape-rendering="optimizeSpeed"  x="50" y="190" width="10" height="10" fill="black" />
<rect shape-rendering="optimizeSpeed"  x="70" y="190" width="10" height="10" fill="black" />
<rect shape-rendering="optimizeSpeed"  x="80" y="190" width="10" height="10" fill="black" />
<rect shape-rendering="optimizeSpeed"  x="100" y="190" width="10" height="10" fill="black" />
<rect shape-rendering="optimizeSpeed"  x="120" y="190" width="10" height="10" fill="black" />
<rect shape-rendering="optimizeSpeed"  x="130" y="190" width="10" height="10" fill="black" />
<rect shape-rendering="optimizeSpeed"  x="150" y="190" width="10" height="10" fill="black" />
<rect shape-rendering="optimizeSpeed"  x="160" y="190" width="10" height="10" fill="black" />
<rect shape-rendering="optimizeSpeed"  x="180" y="190" width="10" height="10" fill="black" />
<rect shape-rendering="optimizeSpeed"  x="190" y="190" width="10" height="10" fill="black" />
<rect shape-rendering="optimizeSpeed"  x="210" y="190" width="10" height="10" fill="black" />
<rect shape-rendering="optimizeSpeed"  x="220" y="190" width="10" height="10" fill="black" />
<rect shape-rendering="optimizeSpeed"  x="250" y="190" width="10" height="10" fill="black" />
<rect shape-rendering="optimizeSpeed"  x="0" y="200" width="10" height="10" fill="black" />
<rect shape-rendering="optimizeSpeed"  x="60" y="200" width="10" height="10" fill="black" />
<rect shape-rendering="optimizeSpeed"  x="70" y="200" width="10" height="10" fill="black" />
<rect shape-rendering="optimizeSpeed"  x="80" y="200" width="10" height="10" fill="black" />
<rect shape-rendering="optimizeSpeed"  x="90" y="200" width="10" height="10" fill="black" />
<rect shape-rendering="optimizeSpeed"  x="100" y="200" width="10" height="10" fill="black" />
<rect shape-rendering="optimizeSpeed"  x="120" y="200" width="10" height="10" fill="black" />
<rect shape-rendering="optimizeSpeed"  x="140" y="200" width="10" height="10" fill="black" />
<rect shape-rendering="optimizeSpeed"  x="150" y="200" width="10" height="10" fill="black" />
<rect shape-rendering="optimizeSpeed"  x="200" y="200" width="10" height="10" fill="black" />
<rect shape-rendering="optimizeSpeed"  x="210" y="200" width="10" height="10" fill="black" />
<rect shape-rendering="optimizeSpeed"  x="220" y="200" width="10" height="10" fill="black" />
<rect shape-rendering="optimizeSpeed"  x="230" y="200" width="10" height="10" fill="black" />
<rect shape-rendering="optimizeSpeed"  x="240" y="200" width="10" height="10" fill="black" />
<rect shape-rendering="optimizeSpeed"  x="250" y="200" width="10" height="10" fill="black" />
<rect shape-rendering="optimizeSpeed"  x="280" y="200" width="10" height="10" fill="black" />
<rect shape-rendering="optimizeSpeed"  x="80" y="210" width="10" height="10" fill="black" />
<rect shape-rendering="optimizeSpeed"  x="90" y="210" width="10" height="10" fill="black" />
<rect shape-rendering="optimizeSpeed"  x="150" y="210" width="10" height="10" fill="black" />
<rect shape-rendering="optimizeSpeed"  x="160" y="210" width="10" height="10" fill="black" />
<rect shape-rendering="optimizeSpeed"  x="190" y="210" width="10" height="10" fill="black" />
<rect shape-rendering="optimizeSpeed"  x="200" y="210" width="10" height="10" fill="black" />
<rect shape-rendering="optimizeSpeed"  x="240" y="210" width="10" height="10" fill="black" />
<rect shape-rendering="optimizeSpeed"  x="270" y="210" width="10" height="10" fill="black" />
<rect shape-rendering="optimizeSpeed"  x="280" y="210" width="10" height="10" fill="black" />
<rect shape-rendering="optimizeSpeed"  x="0" y="220" width="10" height="10" fill="black" />
<rect shape-rendering="optimizeSpeed"  x="10" y="220" width="10" height="10" fill="black" />
<rect shape-rendering="optimizeSpeed"  x="20" y="220" width="10" height="10" fill="black" />
<rect shape-rendering="optimizeSpeed"  x="30" y="220" width="10" height="10" fill="black" />
<rect shape-rendering="optimizeSpeed"  x="40" y="220" width="10" height="10" fill="black" />
<rect shape-rendering="optimizeSpeed"  x="50" y="220" width="10" height="10" fill="black" />
<rect shape-rendering="optimizeSpeed"  x="60" y="220" width="10" height="10" fill="black" />
<rect shape-rendering="optimizeSpeed"  x="80" y="220" width="10" height="10" fill="black" />
<rect shape-rendering="optimizeSpeed"  x="110" y="220" width="10" height="10" fill="black" />
<rect shape-rendering="optimizeSpeed"  x="120" y="220" width="10" height="10" fill="black" />
<rect shape-rendering="optimizeSpeed"  x="150" y="220" width="10" height="10" fill="black" />
<rect shape-rendering="optimizeSpeed"  x="160" y="220" width="10" height="10" fill="black" />
<rect shape-rendering="optimizeSpeed"  x="190" y="220" width="10" height="10" fill="black" />
<rect shape-rendering="optimizeSpeed"  x="200" y="220" width="10" height="10" fill="black" />
<rect shape-rendering="optimizeSpeed"  x="220" y="220" width="10" height="10" fill="black" />
<rect shape-rendering="optimizeSpeed"  x="240" y="220" width="10" height="10" fill="black" />
<rect shape-rendering="optimizeSpeed"  x="250" y="220" width="10" height="10" fill="black" />
<rect shape-rendering="optimizeSpeed"  x="260" y="220" width="10" height="10" fill="black" />
<rect shape-rendering="optimizeSpeed"  x="0" y="230" width="10" height="10" fill="black" />
<rect shape-rendering="optimizeSpeed"  x="60" y="230" width="10" height="10" fill="black" />
<rect shape-rendering="optimizeSpeed"  x="90" y="230" width="10" height="10" fill="black" />
<rect shape-rendering="optimizeSpeed"  x="100" y="230" width="10" height="10" fill="black" />
<rect shape-rendering="optimizeSpeed"  x="110" y="230" width="10" height="10" fill="black" />
<rect shape-rendering="optimizeSpeed"  x="140" y="230" width="10" height="10" fill="black" />
<rect shape-rendering="optimizeSpeed"  x="150" y="230" width="10" height="10" fill="black" />
<rect shape-rendering="optimizeSpeed"  x="200" y="230" width="10" height="10" fill="black" />
<rect shape-rendering="optimizeSpeed"  x="240" y="230" width="10" height="10" fill="black" />
<rect shape-rendering="optimizeSpeed"  x="250" y="230" width="10" height="10" fill="black" />
<rect shape-rendering="optimizeSpeed"  x="270" y="230" width="10" height="10" fill="black" />
<rect shape-rendering="optimizeSpeed"  x="280" y="230" width="10" height="10" fill="black" />
<rect shape-rendering="optimizeSpeed"  x="0" y="240" width="10" height="10" fill="black" />
<rect shape-rendering="optimizeSpeed"  x="20" y="240" width="10" height="10" fill="black" />
<rect shape-rendering="optimizeSpeed"  x="30" y="240" width="10" height="10" fill="black" />
<rect shape-rendering="optimizeSpeed"  x="40" y="240" width="10" height="10" fill="black" />
<rect shape-rendering="optimizeSpeed"  x="60" y="240" width="10" height="10" fill="black" />
<rect shape-rendering="optimizeSpeed"  x="80" y="240" width="10" height="10" fill="black" />
<rect shape-rendering="optimizeSpeed"  x="100" y="240" width="10" height="10" fill="black" />
<rect shape-rendering="optimizeSpeed"  x="110" y="240" width="10" height="10" fill="black" />
<rect shape-rendering="optimizeSpeed"  x="170" y="240" width="10" height="10" fill="black" />
<rect shape-rendering="optimizeSpeed"  x="180" y="240" width="10" height="10" fill="black" />
<rect shape-rendering="optimizeSpeed"  x="200" y="240" width="10" height="10" fill="black" />
<rect shape-rendering="optimizeSpeed"  x="210" y="240" width="10" height="10" fill="black" />
<rect shape-rendering="optimizeSpeed"  x="220" y="240" width="10" height="10" fill="black" />
<rect shape-rendering="optimizeSpeed"  x="230" y="240" width="10" height="10" fill="black" />
<rect shape-rendering="optimizeSpeed"  x="240" y="240" width="10" height="10" fill="black" />
<rect shape-rendering="optimizeSpeed"  x="260" y="240" width="10" height="10" fill="black" />
<rect shape-rendering="optimizeSpeed"  x="270" y="240" width="10" height="10" fill="black" />
<rect shape-rendering="optimizeSpeed"  x="0" y="250" width="10" height="10" fill="black" />
<rect shape-rendering="optimizeSpeed"  x="20" y="250" width="10" height="10" fill="black" />
<rect shape-rendering="optimizeSpeed"  x="30" y="250" width="10" height="10" fill="black" />
<rect shape-rendering="optimizeSpeed"  x="40" y="250" width="10" height="10" fill="black" />
<rect shape-rendering="optimizeSpeed"  x="60" y="250" width="10" height="10" fill="black" />
<rect shape-rendering="optimizeSpeed"  x="80" y="250" width="10" height="10" fill="black" />
<rect shape-rendering="optimizeSpeed"  x="90" y="250" width="10" height="10" fill="black" />
<rect shape-rendering="optimizeSpeed"  x="100" y="250" width="10" height="10" fill="black" />
<rect shape-rendering="optimizeSpeed"  x="120" y="250" width="10" height="10" fill="black" />
<rect shape-rendering="optimizeSpeed"  x="130" y="250" width="10" height="10" fill="black" />
<rect shape-rendering="optimizeSpeed"  x="140" y="250" width="10" height="10" fill="black" />
<rect shape-rendering="optimizeSpeed"  x="160" y="250" width="10" height="10" fill="black" />
<rect shape-rendering="optimizeSpeed"  x="170" y="250" width="10" height="10" fill="black" />
<rect shape-rendering="optimizeSpeed"  x="230" y="250" width="10" height="10" fill="black" />
<rect shape-rendering="optimizeSpeed"  x="260" y="250" width="10" height="10" fill="black" />
<rect shape-rendering="optimizeSpeed"  x="270" y="250" width="10" height="10" fill="black" />
<rect shape-rendering="optimizeSpeed"  x="280" y="250" width="10" height="10" fill="black" />
<rect shape-rendering="optimizeSpeed"  x="0" y="260" width="10" height="10" fill="black" />
<rect shape-rendering="optimizeSpeed"  x="20" y="260" width="10" height="10" fill="black" />
<rect shape-rendering="optimizeSpeed"  x="30" y="260" width="10" height="10" fill="black" />
<rect shape-rendering="optimizeSpeed"  x="40" y="260" width="10" height="10" fill="black" />
<rect shape-rendering="optimizeSpeed"  x="60" y="260" width="10" height="10" fill="black" />
<rect shape-rendering="optimizeSpeed"  x="80" y="260" width="10" height="10" fill="black" />
<rect shape-rendering="optimizeSpeed"  x="130" y="260" width="10" height="10" fill="black" />
<rect shape-rendering="optimizeSpeed"  x="140" y="260" width="10" height="10" fill="black" />
<rect shape-rendering="optimizeSpeed"  x="150" y="260" width="10" height="10" fill="black" />
<rect shape-rendering="optimizeSpeed"  x="160" y="260" width="10" height="10" fill="black" />
<rect shape-rendering="optimizeSpeed"  x="180" y="260" width="10" height="10" fill="black" />
<rect shape-rendering="optimizeSpeed"  x="190" y="260" width="10" height="10" fill="black" />
<rect shape-rendering="optimizeSpeed"  x="220" y="260" width="10" height="10" fill="black" />
<rect shape-rendering="optimizeSpeed"  x="230" y="260" width="10" height="10" fill="black" />
<rect shape-rendering="optimizeSpeed"  x="240" y="260" width="10" height="10" fill="black" />
<rect shape-rendering="optimizeSpeed"  x="270" y="260" width="10" height="10" fill="black" />
<rect shape-rendering="optimizeSpeed"  x="0" y="270" width="10" height="10" fill="black" />
<rect shape-rendering="optimizeSpeed"  x="60" y="270" width="10" height="10" fill="black" />
<rect shape-rendering="optimizeSpeed"  x="80" y="270" width="10" height="10" fill="black" />
<rect shape-rendering="optimizeSpeed"  x="90" y="270" width="10" height="10" fill="black" />
<rect shape-rendering="optimizeSpeed"  x="120" y="270" width="10" height="10" fill="black" />
<rect shape-rendering="optimizeSpeed"  x="130" y="270" width="10" height="10" fill="black" />
<rect shape-rendering="optimizeSpeed"  x="180" y="270" width="10" height="10" fill="black" />
<rect shape-rendering="optimizeSpeed"  x="190" y="270" width="10" height="10" fill="black" />
<rect shape-rendering="optimizeSpeed"  x="200" y="270" width="10" height="10" fill="black" />
<rect shape-rendering="optimizeSpeed"  x="210" y="270" width="10" height="10" fill="black" />
<rect shape-rendering="optimizeSpeed"  x="230" y="270" width="10" height="10" fill="black" />
<rect shape-rendering="optimizeSpeed"  x="240" y="270" width="10" height="10" fill="black" />
<rect shape-rendering="optimizeSpeed"  x="250" y="270" width="10" height="10" fill="black" />
<rect shape-rendering="optimizeSpeed"  x="270" y="270" width="10" height="10" fill="black" />
<rect shape-rendering="optimizeSpeed"  x="0" y="280" width="10" height="10" fill="black" />
<rect shape-rendering="optimizeSpeed"  x="10" y="280" width="10" height="10" fill="black" />
<rect shape-rendering="optimizeSpeed"  x="20" y="280" width="10" height="10" fill="black" />
<rect shape-rendering="optimizeSpeed"  x="30" y="280" width="10" height="10" fill="black" />
<rect shape-rendering="optimizeSpeed"  x="40" y="280" width="10" height="10" fill="black" />
<rect shape-rendering="optimizeSpeed"  x="50" y="280" width="10" height="10" fill="black" />
<rect shape-rendering="optimizeSpeed"  x="60" y="280" width="10" height="10" fill="black" />
<rect shape-rendering="optimizeSpeed"  x="80" y="280" width="10" height="10" fill="black" />
<rect shape-rendering="optimizeSpeed"  x="120" y="280" width="10" height="10" fill="black" />
<rect shape-rendering="optimizeSpeed"  x="140" y="280" width="10" height="10" fill="black" />
<rect shape-rendering="optimizeSpeed"  x="150" y="280" width="10" height="10" fill="black" />
<rect shape-rendering="optimizeSpeed"  x="160" y="280" width="10" height="10" fill="black" />
<rect shape-rendering="optimizeSpeed"  x="170" y="280" width="10" height="10" fill="black" />
<rect shape-rendering="optimizeSpeed"  x="180" y="280" width="10" height="10" fill="black" />
<rect shape-rendering="optimizeSpeed"  x="210" y="280" width="10" height="10" fill="black" />
<rect shape-rendering="optimizeSpeed"  x="220" y="280" width="10" height="10" fill="black" />
<rect shape-rendering="optimizeSpeed"  x="240" y="280" width="10" height="10" fill="black" />
<rect shape-rendering="optimizeSpeed"  x="250" y="280" width="10" height="10" fill="black" /></svg>